<svg xmlns="http://www.w3.org/2000/svg" viewBox="0 0 428.76 85.33" fill="#1c7b9e"><path d="M50.55 25.7c.045 14.05-11.232 25.514-25.28 25.7C11.27 51.134.067 39.707.067 25.705S11.27.276 25.27 0C39.322.186 50.6 11.657 50.55 25.7zm-41.62 0c0 10.73 8 17.85 16.42 17.85 9 0 16.34-7.12 16.34-17.85S34.35 7.85 25.35 7.85c-8.43 0-16.42 7.13-16.42 17.86zm70.42-12.38v7.4a21.47 21.47 0 0 0-3.17-.15c-6.77 0-12.53 4.83-13.4 12.75v17.6h-7.92V13.47h7.9V25.2c.82-6.5 5.5-12.1 13.5-12.1a20.23 20.23 0 0 1 3.1.21zm14.6 6.63v21c0 2 .72 3.6 3 3.6a11.85 11.85 0 0 0 4.9-1v6.55a14.91 14.91 0 0 1-6.91 1.3c-4.68 0-8.93-1.87-8.93-10.15v-21.3h-4.9v-6.48h4.9V7h7.94v6.48h7.92v6.48zm46.87 9.3V50.9h-7.92V29.7c0-7.13-3.38-9.8-8.06-9.8-6.2 0-10.23 5.62-11.1 9.3v21.7h-7.92V.5h7.92v20.9c.72-2.3 5-8.28 12.82-8.28 7.18 0 14.25 4.46 14.25 16.13zm41.04 3.02c0 13-10.87 19.15-18.72 19.15s-18.72-6.12-18.72-19.15 10.87-19.23 18.72-19.23 18.72 6.27 18.72 19.23zm-29.52 0c0 8.2 5.76 12.24 10.8 12.24s10.8-4 10.8-12.24-5.76-12.3-10.8-12.3-10.8 4.03-10.8 12.3zM221.62 7.7h-13.76v43.2h-8.57V7.7h-13.82V.5h36.15zm23.76 5.62v7.4a21.47 21.47 0 0 0-3.17-.15c-6.77 0-12.53 4.83-13.4 12.75v17.6h-7.92V13.47h7.92V25.2c.8-6.48 5.48-12.1 13.47-12.1a20.23 20.23 0 0 1 3.1.21zm29.16 5.98v-5.83h7.92V50.9h-7.92v-6.2c-.94 3-5.4 6.7-11.45 6.7-7.92 0-17.72-6.2-17.72-19.22 0-12.82 9.8-19.16 17.72-19.16 6.05.01 10.44 3.18 11.45 6.28zM253.3 32.2c0 8.13 5.84 12.38 11 12.38s10.6-3.6 10.6-12.38-5.48-12.32-10.6-12.32-11 4.25-11 12.32zm68.54-18.73V50.9h-7.92v-8.35c-.72 2.88-5 8.85-13 8.85-7.2 0-13.83-4-13.83-16v-22h7.9v22c0 6.77 3.17 9.14 7.85 9.14 5.84 0 10.37-6.55 11-10.5V13.47zm66.6 16.5v21h-8v-21c0-6.7-3.4-10.1-8.64-10.1-5.55 0-9 4.6-10 9.37V50.9h-8v-21c0-6.7-3.82-10.1-8.64-10.1-6.05 0-9.15 4.6-10 9.37l.07 21.67h-8v-37.4h7.92v8.13c.43-3.1 3.9-8.5 11.73-8.5a14.25 14.25 0 0 1 13.47 8.78 14.3 14.3 0 0 1 13.61-8.78c7.07 0 14.48 4.4 14.48 16.85zm32.4-10.66v-5.83h7.92V50.9h-7.92v-6.2c-.94 3-5.4 6.7-11.45 6.7-7.92 0-17.7-6.2-17.7-19.22 0-12.82 9.8-19.16 17.7-19.16 6.05.01 10.44 3.18 11.45 6.28zM399.6 32.2c0 8.13 5.83 12.38 11 12.38s10.6-3.6 10.6-12.38-5.43-12.32-10.58-12.32-11 4.25-11 12.32zM261 85.08h-1.73v-25.2H261zm23.93.22l-18-21.34V85.1h-1.73V59.7h.07l18 21.4V59.88h1.7zm20.52-20.45l-1.48.58a7.3 7.3 0 0 0-6.88-4.29c-3.77 0-6.2 2-6.2 4.75s1.9 3.78 4.54 4.68l3.38 1.2c3.64 1.22 6.88 2.88 6.88 7s-4.1 6.6-8.57 6.6c-4.18 0-7.8-2.48-9-5.9l1.5-.62a7.82 7.82 0 0 0 7.45 5c3.6 0 6.88-1.87 6.88-5.08s-2.7-4.46-5.4-5.4l-3.53-1.22c-3.46-1.15-5.87-2.77-5.87-6.23s3.28-6.26 7.88-6.26a8.9 8.9 0 0 1 8.4 5.21zm19.4-3.45h-7.7v23.7h-1.73V61.4h-7.74v-1.5h17.17zm5.7 23.68h-1.73v-25.2h1.73zm21.13-23.68h-7.7v23.7h-1.73V61.4h-7.74v-1.5h17.17zm22.57 14.14c0 6.12-3.8 9.8-9.43 9.8s-9.36-3.67-9.36-9.8V59.88h1.7V75.5c0 5.3 2.88 8.32 7.67 8.32s7.74-3 7.74-8.32V59.88h1.7zM395.2 61.4h-7.7v23.7h-1.73V61.4h-7.74v-1.5h17.17zm19.25 22.13v1.55h-15.48v-25.2h15.05v1.55h-13.26v10.2h9.75v1.58h-9.75v10.33z"/></svg>