<svg id="Layer_1" data-name="Layer 1" xmlns="http://www.w3.org/2000/svg" viewBox="0 0 127.57 48.62"><defs><style>.cls-1{fill:#4b7687;}.cls-2{fill:#069;}</style></defs><title>logoCOT</title><path class="cls-1" d="M1.16.94h1v9h-1Z" transform="translate(-1.16 -0.77)"/><path class="cls-1" d="M4.4.94H5.49l5.08,7.44h0V.94h1v9H10.51L5.43,2.52h0V10h-1Z" transform="translate(-1.16 -0.77)"/><path class="cls-1" d="M18.73,3.29a1.8,1.8,0,0,0-2-1.61c-1.43,0-2,.82-2,1.68,0,.6.36,1.17,2,1.49,2.26.44,3.28,1,3.28,2.57,0,1.35-1,2.71-3.3,2.71-2,0-3.16-1-3.26-2.66h1A2,2,0,0,0,16.7,9.22c1.55,0,2.17-.9,2.17-1.71,0-1-.55-1.29-2.14-1.63-2.08-.43-3.09-1-3.09-2.52s1.21-2.59,3-2.59c2.22,0,2.9,1.21,3.08,2.52Z" transform="translate(-1.16 -0.77)"/><path class="cls-1" d="M23.51,1.85H20.77V.94h6.48v.91H24.51V10h-1Z" transform="translate(-1.16 -0.77)"/><path class="cls-1" d="M28.51.94h1v9h-1Z" transform="translate(-1.16 -0.77)"/><path class="cls-1" d="M33.51,1.85H30.78V.94h6.48v.91H34.52V10h-1Z" transform="translate(-1.16 -0.77)"/><path class="cls-1" d="M38.38.94h1V6.82a2.13,2.13,0,0,0,2.31,2.4c1.25,0,2.3-.77,2.3-2.61V.94h1V6.63a3.17,3.17,0,0,1-3.31,3.5A3,3,0,0,1,38.38,7Z" transform="translate(-1.16 -0.77)"/><path class="cls-1" d="M48.85,1.85H46.12V.94h6.47v.91H49.86V10h-1Z" transform="translate(-1.16 -0.77)"/><path class="cls-1" d="M58,.77a4.38,4.38,0,0,1,4.58,4.68A4.51,4.51,0,0,1,58,10.13a4.38,4.38,0,0,1-4.58-4.68A4.51,4.51,0,0,1,58,.77Zm0,.91c-2.51,0-3.5,2-3.5,3.77a3.51,3.51,0,1,0,7,0C61.53,3.63,60.54,1.68,58,1.68Z" transform="translate(-1.16 -0.77)"/><path class="cls-2" d="M41.09,44.54a15.94,15.94,0,0,1-11.9,4.85,14.75,14.75,0,0,1-11.48-4.8,17.74,17.74,0,0,1-4.32-11.76c0-9.74,6.63-16.7,15.89-16.7,4.95,0,8.31,1.39,12.1,5.08l-4.27,4.32c-2.6-2.35-4.8-3.31-7.49-3.31-5.62,0-9.55,4.32-9.55,10.47S24.19,43.3,30,43.3A8.87,8.87,0,0,0,37.11,40Z" transform="translate(-1.16 -0.77)"/><path class="cls-2" d="M71.86,21.5a16.33,16.33,0,0,1,4.08,11.43,16.54,16.54,0,0,1-33.07,0,16.71,16.71,0,0,1,29-11.43ZM49.59,32.83c0,6,4.27,10.51,9.84,10.51S69.27,38.78,69.27,33c0-6.2-4.13-10.76-9.8-10.76S49.59,26.73,49.59,32.83Z" transform="translate(-1.16 -0.77)"/><path class="cls-2" d="M91.3,48.77H84.72V22.13H77.09V16.75H98.88v5.38H91.3Z" transform="translate(-1.16 -0.77)"/><path class="cls-2" d="M108.67,11.31A12.12,12.12,0,0,0,108,7.66,3.66,3.66,0,0,1,108,5.83c.14-.48,0-.92-.61-.82a10.16,10.16,0,0,1-3.3-.15,1,1,0,0,0-.65.1c-.16.08-.32.19-.33.37s.22.21.38.26a10.5,10.5,0,0,1,2.34,1.24c.57.32.25,1,.34,1.58a35.48,35.48,0,0,0,.32,3.71,2.53,2.53,0,0,1,0,.78c-.08,1.67.89,3,1.34,4.57A10.25,10.25,0,0,0,109.05,20a1.13,1.13,0,0,1,.21,1.11c-.21.48.41.92.52.92.75,0,.81.61,1,1a9.13,9.13,0,0,0,1.62,2.43,13.61,13.61,0,0,1,1.31,2.17A2.41,2.41,0,0,0,115.73,29c1.27.18,2.21.56,2.55,1.94a10.1,10.1,0,0,0,1.29,2.31c1.09,2,3.17,2.48,4.78,3.67a7,7,0,0,0,3.73,1.14c.25,0,.58,0,.65-.22s-.28-.28-.46-.38a12.74,12.74,0,0,0-2.05-.87,8.44,8.44,0,0,1-3-2.33c-.45-.43-.8-1-1.4-1.19s-.48-.67-.65-1a16.2,16.2,0,0,1-1.53-4.28c0-.12-.09-.24.08-.3a.36.36,0,0,1,.41.12,4,4,0,0,0,1,.88c.12.08.23.28.37.14.31-.33.45-.86.93-1,.69-.22.28-.72.33-1.11,0-.19,0-.42,0-.58a1.35,1.35,0,0,0-.34-1.75,3,3,0,0,0-2.11-.73,1.12,1.12,0,0,0-1.32.87c-.09.32-.39.34-.68.26a6.9,6.9,0,0,1-3-1.86c-.28-.28-.49-.62-.78-.88a2.37,2.37,0,0,1-.9-2.15,2,2,0,0,0-1-2,.78.78,0,0,1-.37-1.06c0-.08.06-.12,0-.16a.55.55,0,0,1,0,.18c-.14.46-.37.32-.55,0A18.37,18.37,0,0,1,110,14.13a1.79,1.79,0,0,0-.79-.88C108.46,12.81,108.69,12,108.67,11.31Z" transform="translate(-1.16 -0.77)"/></svg>